<?xml version="1.0" encoding="UTF-8"?>
<svg id="Capa_2" data-name="Capa 2" xmlns="http://www.w3.org/2000/svg" viewBox="0 0 158.04 155.35">
  <defs>
    <style>
      .cls-1 {
        fill: #00755d;
      }

      .cls-2 {
        fill: #00618e;
      }
    </style>
  </defs>
  <g id="Capa_1-2" data-name="Capa 1">
    <g>
      <path class="cls-2" d="M56.38,112.89c-9.93-6.15-16.19-14.64-18.78-25.88-2.59-11.24-.65-21.85,5.61-31.6,6.26-9.54,14.89-15.7,26.33-18.24,11.44-2.76,22.02-1.06,31.94,5.09.39.24.75.49,1.13.73l24.71-26.67c-2.04-1.54-4.17-3-6.41-4.4C102.57.68,82.71-2.71,61.35,2.17,39.98,7.05,23.57,18.5,12.14,36.53.7,54.56-2.76,74.07,2.21,95.07c4.96,20.79,16.62,36.91,34.96,48.15,18.35,11.45,38.2,14.85,59.35,9.97,4.94-1.12,9.72-2.68,14.36-4.67l-32.12-29.03c-7.85-.01-15.33-2.23-22.39-6.6Z"/>
      <path class="cls-1" d="M146.17,118.19c11.22-18.03,14.46-37.33,9.71-57.91-3.54-14.82-10.48-27.27-20.83-37.35l-24.63,26.58c4.86,5.18,8.14,11.45,9.84,18.83,1.94,8.27,1.29,16.54-1.94,24.6l-26.12-23.76-7.23,7.79-17.36,18.74,23.94,21.62s-.01,0-.02.01l41.94,37.9,24.55-26.25-11.87-10.82Z"/>
    </g>
  </g>
</svg>